<?xml version="1.0" encoding="utf-8"?>
<svg xmlns="http://www.w3.org/2000/svg" viewBox="0 0 500 500" xmlns:bx="https://boxy-svg.com" width="500px" height="500px"><defs><pattern x="0" y="0" width="25" height="25" patternUnits="userSpaceOnUse" viewBox="0 0 100 100" id="pattern-0" bx:pinned="true"><rect width="50" height="100" style="fill: black; transform-origin: 25px 50px 0px;" transform="matrix(0, 1, -1, 0, 25, -25)"/><rect width="50" height="100" style="transform-origin: 25px 50px 0px; fill: rgb(255, 255, 255);" transform="matrix(0, 1, -1, 0, 25.000098, 25.000098)"/></pattern><bx:export><bx:file format="svg" path="apple.svg"/></bx:export><pattern id="pattern-0-0" href="#pattern-0" patternTransform="matrix(19.9998, 0, 0, 19.9998, 0.014564, 0.014168)"/></defs><title>Apple</title><path d="M 253.132 143.687 C 233.432 143.687 202.832 121.187 170.632 121.987 C 128.132 122.587 89.232 146.687 67.332 184.787 C 23.232 261.387 55.932 374.387 98.932 436.687 C 120.032 466.987 144.932 501.087 177.932 499.987 C 209.632 498.587 221.532 479.387 259.932 479.387 C 298.132 479.387 308.932 499.987 342.432 499.187 C 376.532 498.587 398.232 468.287 419.032 437.787 C 443.132 402.587 453.132 368.487 453.632 366.587 C 452.832 366.387 387.332 341.187 386.632 265.387 C 386.032 202.087 438.232 171.787 440.632 170.487 C 410.932 126.887 365.232 122.087 349.232 120.987 C 307.532 117.687 272.632 143.687 253.132 143.687 Z M 323.532 79.787 C 341.132 58.687 352.732 29.287 349.532 -0.013 C 324.332 1.087 294.032 16.787 275.932 37.887 C 259.632 56.587 245.632 86.587 249.432 115.287 C 277.232 117.487 305.932 100.987 323.532 79.787" style="stroke-width: 0px; fill: url(&quot;#pattern-0-0&quot;); transform-origin: 250.005px 250.034px 0px;"/></svg>
