<?xml version="1.0" encoding="utf-8"?>
<svg xmlns="http://www.w3.org/2000/svg" viewBox="0 80.25 500 339.5" width="500px" height="339.5px"><defs><pattern id="pattern-0-1" href="#pattern-0" patternTransform="matrix(20.8335, 0, 0, 20.8335, -10.233, -10.399994)"/><pattern x="0" y="0" width="25" height="25" patternUnits="userSpaceOnUse" viewBox="0 0 100 100" id="pattern-0"><rect width="50" height="100" style="fill: black; transform-origin: 50px 50px 0px;" x="25" transform="matrix(0, 1, -1, 0, 0, -25)"/><rect width="50" height="100" style="fill: rgb(255, 255, 255); transform-origin: 50px 50.002px 0px;" x="25" transform="matrix(0, 1, -1, 0, -0.002, 24.998)"/></pattern></defs><path d="M 250 80.25 C 109 80.25 0 152.25 0 250.25 C 0 348.25 109 419.75 250 419.75 C 391.5 419.75 500 348.25 500 250.25 C 500 152.25 391.5 80.25 250 80.25 Z M 403 160.25 C 403 182.75 367 200.25 309.5 207.25 C 304 153.25 288.5 117.75 268.5 104.75 C 330 108.75 403 130.25 403 160.25 Z M 250 341.75 C 230 341.75 214 310.75 212.5 250.25 C 224.5 251.25 237 251.75 250 251.75 C 263.5 251.75 276 251.25 288 250.25 C 286.5 310.75 270 341.75 250 341.75 Z M 250 210.25 C 238 210.25 226 209.75 215 209.25 C 220.5 173.25 234 143.75 250 143.75 C 266.5 143.75 280 173.25 285.5 209.25 C 274.5 209.75 262.5 210.25 250 210.25 Z M 232 104.75 C 212 117.75 196.5 153.25 191 207.25 C 133.5 200.25 97.5 182.75 97.5 160.25 C 97.5 130.25 170.5 108.25 232 104.75 Z M 42.5 243.25 C 42.5 219.75 50.5 196.75 64.5 177.75 C 70 209.75 117 237.75 189 247.75 L 189 250.25 C 189 328.75 207 379.25 232.5 395.25 C 126 388.75 42.5 322.75 42.5 243.25 Z M 268 395.25 C 293.5 379.25 311.5 328.75 311.5 250.25 L 311.5 247.75 C 383.5 237.75 430.5 209.75 436 177.25 C 450.5 196.75 458 219.75 458 243.25 C 458 322.75 374.5 388.75 268 395.25 Z" style="stroke: rgb(0, 0, 0); fill: url(&quot;#pattern-0-1&quot;); stroke-width: 0px;" id="object-0"/></svg>
