<?xml version="1.0" encoding="utf-8"?>
<svg xmlns="http://www.w3.org/2000/svg" viewBox="0 169.25 500 161.5" width="500px" height="161.5px"><defs><pattern id="pattern-0-0" href="#pattern-0" patternTransform="matrix(20.8335, 0, 0, 20.8335, -10.245984, -10.1317)"/><pattern x="0" y="0" width="25" height="25" patternUnits="userSpaceOnUse" viewBox="0 0 100 100" id="pattern-0"><rect width="50" height="100" style="fill: black; transform-origin: 50px 50px 0px;" x="25" transform="matrix(0, 1, -1, 0, 0, -25)"/><rect width="50" height="100" style="fill: rgb(255, 255, 255); transform-origin: 50px 50.002px 0px;" x="25" transform="matrix(0, 1, -1, 0, -0.002, 24.998)"/></pattern></defs><path d="M 190 172.25 L 124.5 328.25 L 82 328.25 L 49.5 203.75 C 47.5 196.25 46 193.25 40 190.25 C 30.5 184.75 14.5 179.75 0 176.75 L 1 172.25 L 70 172.25 C 79 172.25 87 178.75 88.5 188.25 L 105.5 278.75 L 147.5 172.25 L 190 172.25 Z M 357.5 277.25 C 357.5 236.25 300.5 233.75 301 215.25 C 301 209.75 306.5 203.75 318 202.25 C 331.5 201.25 345.5 203.75 358 209.25 L 365 176.25 C 353 171.75 340 169.25 327 169.25 C 287 169.25 259 190.75 259 220.75 C 258.5 243.25 279 255.75 294 263.25 C 310 271.25 315 276.25 315 282.75 C 315 293.25 302.5 297.75 291 298.25 C 270.5 298.25 259 292.75 249.5 288.25 L 242 322.75 C 251.5 326.75 269 330.75 287 330.75 C 329.5 330.75 357.5 309.75 357.5 277.25 M 463 328.25 L 500 328.25 L 467.5 172.25 L 433 172.25 C 425.5 172.25 419 176.75 416 183.75 L 355.5 328.25 L 397.5 328.25 L 406 305.25 L 458 305.25 L 463 328.25 Z M 418 273.25 L 439 214.25 L 451.5 273.25 L 418 273.25 Z M 248 172.25 L 214.5 328.25 L 174 328.25 L 207.5 172.25 L 248 172.25 Z" style="fill: url(&quot;#pattern-0-0&quot;);" id="object-0"/></svg>
