<?xml version="1.0" encoding="utf-8"?>
<svg xmlns="http://www.w3.org/2000/svg" viewBox="-0.001 22.951 500.001 454.0974" width="500.001px" height="454.0974px"><defs><pattern id="pattern-0-1" href="#pattern-0" patternTransform="matrix(20.8333, 0, 0, 20.8333, -10.35, -10.421391)"/><pattern x="0" y="0" width="25" height="25" patternUnits="userSpaceOnUse" viewBox="0 0 100 100" id="pattern-0"><rect width="50" height="100" style="fill: black; transform-origin: 50px 50px 0px;" x="25" transform="matrix(0, 1, -1, 0, 0, -25)"/><rect width="50" height="100" style="transform-origin: 50px 50px 0px; fill: rgb(255, 255, 255);" x="25" transform="matrix(0, 1, -1, 0, 0, 25)"/></pattern></defs><path d="M 0.936 375.408 C 2.436 372.992 4.832 372.825 8.186 374.95 C 83.936 418.908 166.394 440.908 255.478 440.908 C 314.894 440.908 373.561 429.804 431.457 407.679 L 438.019 404.763 C 440.894 403.513 442.89 402.679 444.12 402.054 C 448.83 400.221 452.25 401.096 455.06 404.763 C 457.56 408.388 456.94 411.762 452.56 414.762 C 447.23 418.721 440.061 423.304 431.602 428.387 C 405.686 443.867 376.602 455.804 344.415 464.346 C 269.019 484.721 189.103 480.492 116.27 452.325 C 74.686 436.033 36.374 412.387 3.145 382.533 C 1.061 380.992 -0.001 379.408 -0.001 377.95 C -0.001 376.971 0.436 376.075 1.061 375.242 L 0.936 375.408 Z M 137.707 245.867 C 137.707 224.929 142.853 207.054 153.186 192.18 C 163.499 177.388 177.561 166.138 195.686 158.534 C 212.269 151.555 232.269 146.555 256.353 143.534 C 264.478 142.575 277.873 141.388 296.353 139.909 L 296.353 132.2 C 296.353 112.825 294.165 99.742 290.103 93.138 C 283.811 84.18 273.853 79.596 260.103 79.596 L 256.311 79.596 C 246.311 80.555 237.644 83.68 230.353 89.18 C 223.061 94.805 218.374 102.305 216.29 112.013 C 215.04 118.263 211.999 121.7 207.228 122.638 L 154.728 116.075 C 149.561 114.825 146.978 112.325 146.978 107.95 C 146.978 106.992 147.124 106.075 147.436 104.825 C 152.582 77.951 165.249 57.951 185.353 44.826 C 205.686 31.992 229.103 24.513 255.978 22.951 L 267.228 22.951 C 301.603 22.951 328.832 31.992 348.228 49.826 C 351.04 52.951 353.852 56.076 356.665 59.826 C 359.165 63.263 361.332 66.367 362.561 69.201 C 364.123 71.992 365.686 76.076 366.623 81.076 C 367.873 86.367 368.811 89.826 369.436 91.701 C 370.061 93.867 370.727 97.951 371.019 104.513 C 371.227 111.034 371.436 114.784 371.436 116.034 L 371.436 226.034 C 371.436 233.867 372.686 241.034 374.873 247.617 C 377.061 254.138 379.248 258.867 381.436 261.659 L 392.061 275.7 C 393.936 278.534 394.894 281.034 394.894 283.2 C 394.894 285.7 393.644 287.909 391.144 289.742 C 366.144 311.617 352.394 323.492 350.248 325.367 C 346.811 328.179 342.436 328.492 337.123 326.304 C 333.269 323.075 329.603 319.638 326.165 315.971 L 319.707 308.742 C 317.415 305.888 315.228 302.971 313.103 299.992 L 306.853 290.929 C 289.978 309.388 273.457 320.929 256.853 325.617 C 246.561 328.742 234.082 330.346 218.728 330.346 C 195.603 330.346 176.228 323.2 161.228 308.804 C 146.228 294.429 138.728 274.117 138.728 247.554 L 137.686 245.971 L 137.707 245.867 Z M 215.894 236.742 C 215.894 248.534 218.811 257.992 224.749 265.159 C 230.686 272.242 238.811 275.825 248.811 275.825 C 249.748 275.825 251.019 275.679 252.873 275.409 C 254.748 275.075 255.665 274.929 256.332 274.929 C 269.123 271.596 278.832 263.409 285.998 250.388 C 289.436 244.554 291.936 238.304 293.498 231.429 C 295.373 224.763 295.998 219.138 296.311 214.763 C 296.623 210.7 296.623 203.513 296.623 193.825 L 296.623 182.575 C 279.123 182.575 265.707 183.825 256.623 186.325 C 230.061 193.825 216.624 210.7 216.624 236.95 L 215.894 236.534 L 215.894 236.742 Z M 406.769 383.138 C 407.394 381.888 408.332 380.846 409.519 379.596 C 417.061 374.533 424.394 371.054 431.394 369.179 C 442.39 366.388 453.64 364.721 464.98 364.179 C 467.89 363.929 470.81 364.179 473.52 364.804 C 487.06 366.054 495.39 368.304 497.94 371.679 C 499.25 373.554 500 376.429 500 379.804 L 500 382.929 C 500 393.554 496.89 406.054 491.17 420.429 C 485.37 434.804 477.33 446.429 467.08 455.429 C 465.56 456.679 464.16 457.304 462.98 457.304 C 462.35 457.304 461.73 457.304 461.1 457.054 C 459.23 456.137 458.87 454.554 459.77 452.054 C 471.02 425.804 476.56 407.408 476.56 397.054 C 476.56 393.929 475.94 391.429 474.75 389.888 C 471.73 386.429 463.29 384.533 449.25 384.533 C 444.19 384.533 438.144 384.867 431.123 385.492 C 423.561 386.429 416.54 387.367 410.29 388.304 C 408.415 388.304 407.207 388.013 406.54 387.388 C 405.915 386.763 405.79 386.408 406.123 385.783 C 406.123 385.429 406.248 385.158 406.54 384.471 L 406.54 383.221 L 406.769 383.138 Z" style="stroke-width: 0px; fill: url(&quot;#pattern-0-1&quot;);" id="object-0" transform="matrix(1, 0, 0, 1, 0, 1.1368683772161603e-13)"/></svg>