<?xml version="1.0" encoding="utf-8"?>
<svg xmlns="http://www.w3.org/2000/svg" viewBox="0 0 500 500" xmlns:bx="https://boxy-svg.com" width="500px" height="500px"><defs><pattern x="0" y="0" width="25" height="25" patternUnits="userSpaceOnUse" viewBox="0 0 100 100" id="pattern-0"><rect width="50" height="100" style="fill: black; transform-origin: 25px 50px 0px;" transform="matrix(0, 1, -1, 0, 25, -25)"/></pattern><pattern id="pattern-0-0" href="#pattern-0" patternTransform="matrix(1, 0, 0, 1, 237.5, 237.5)"/><bx:export><bx:file format="svg" path="apple.svg"/></bx:export></defs><title>Apple</title><path d="M 250.152 244.896 C 249.204 244.896 247.737 243.818 246.192 243.856 C 244.152 243.883 242.282 245.039 241.231 246.87 C 239.114 250.545 240.685 255.973 242.75 258.96 C 243.763 260.414 244.958 262.05 246.542 261.999 C 248.062 261.934 248.632 261.012 250.477 261.012 C 252.308 261.012 252.827 261.999 254.437 261.96 C 256.074 261.934 257.113 260.48 258.113 259.012 C 259.269 257.324 259.749 255.687 259.775 255.597 C 259.736 255.584 256.593 254.376 256.555 250.74 C 256.529 247.7 259.035 246.246 259.152 246.181 C 257.723 244.091 255.529 243.857 254.762 243.805 C 252.762 243.649 251.087 244.895 250.152 244.895 L 250.152 244.896 Z M 253.53 241.83 C 254.373 240.818 254.93 239.403 254.775 238 C 253.568 238.052 252.113 238.805 251.243 239.818 C 250.463 240.714 249.789 242.156 249.97 243.532 C 251.308 243.636 252.685 242.844 253.529 241.831" style="fill: url(&quot;#pattern-0-0&quot;); transform-origin: 250px 250px 0px;"/></svg>