<?xml version="1.0" encoding="utf-8"?>
<svg xmlns="http://www.w3.org/2000/svg" viewBox="0 0 500 500" xmlns:bx="https://boxy-svg.com" width="500px" height="500px"><defs><pattern x="0" y="0" width="25" height="25" patternUnits="userSpaceOnUse" viewBox="0 0 100 100" id="pattern-0"><rect width="50" height="100" style="fill: black; transform-origin: 25px 50px 0px;" transform="matrix(0, 1, -1, 0, 25, -25)"/></pattern><pattern id="pattern-0-0" href="#pattern-0" patternTransform="matrix(20.8335, 0, 0, 20.8335, -10.399407, -10.425083)"/><bx:export><bx:file format="svg" path="apple.svg"/></bx:export></defs><title>Apple</title><path d="M 253.168 143.652 C 233.423 143.652 202.854 121.204 170.664 121.998 C 128.169 122.549 89.2 146.652 67.3 184.786 C 23.202 261.348 55.944 374.424 98.958 436.646 C 120.061 466.95 144.958 501.053 177.949 499.974 C 209.612 498.625 221.495 479.407 259.923 479.407 C 298.08 479.407 308.884 499.974 342.446 499.156 C 376.524 498.625 398.178 468.321 419.034 437.744 C 443.106 402.584 453.106 368.481 453.652 366.61 C 452.833 366.332 387.369 341.165 386.575 265.423 C 386.034 202.08 438.224 171.776 440.668 170.436 C 410.905 126.905 365.184 122.023 349.21 120.92 C 307.55 117.683 272.638 143.632 253.168 143.632 L 253.168 143.652 Z M 323.55 79.787 C 341.09 58.704 352.694 29.242 349.488 0 C 324.335 1.081 294.024 16.771 275.89 37.879 C 259.655 56.529 245.612 86.585 249.39 115.24 C 277.256 117.42 305.933 100.92 323.524 79.802" style="fill: url(&quot;#pattern-0-0&quot;); transform-origin: 250.011px 250.009px 0px;"/></svg>