<?xml version="1.0" encoding="utf-8"?>
<svg xmlns="http://www.w3.org/2000/svg" viewBox="0.002 0 499.996 499.999" width="499.996px" height="499.999px"><defs><pattern id="pattern-0-0" href="#pattern-0" patternTransform="matrix(20.8333, 0, 0, 20.8333, -10.412886, -10.4115)"/><pattern x="0" y="0" width="25" height="25" patternUnits="userSpaceOnUse" viewBox="0 0 100 100" id="pattern-0"><rect x="25" width="50" height="100" style="fill: black; transform-origin: 50px 50px 0px;" transform="matrix(0, 1, -1, 0, 0, -25)"/><rect x="25" width="50" height="100" style="transform-origin: 50px 50px 0px; fill: rgb(255, 255, 255);" transform="matrix(0, 1, -1, 0, 0, 25)"/></pattern></defs><path d="M 250.001 0 C 111.939 0 0.002 111.938 0.002 250 C 0.002 388.062 111.939 499.999 250.001 499.999 C 388.063 499.999 499.998 388.062 499.998 250 C 499.998 111.938 388.063 0 250.001 0 Z M 250.001 16.25 C 379.084 16.25 483.728 120.896 483.728 250 C 483.728 379.083 379.105 483.729 250.001 483.729 C 120.897 483.729 16.272 379.083 16.272 250 C 16.272 120.917 120.918 16.25 250.001 16.25 Z M 235.876 29.375 C 229.001 29.667 222.126 30.25 215.21 31 L 212.98 92.333 C 217.876 91.5 222.814 90.854 227.772 90.375 L 229.23 48.958 L 228.959 46.104 L 229.855 48.813 L 243.689 79.833 L 256.314 79.833 L 270.147 48.833 L 270.98 46.104 L 270.772 48.958 L 272.23 90.375 C 277.064 90.833 282.084 91.5 287.022 92.333 L 284.751 31 C 277.876 30.229 270.98 29.688 264.084 29.375 L 250.48 63.229 L 250.001 65.729 L 249.522 63.229 L 235.876 29.375 Z M 375.376 67.375 L 343.23 117.958 C 347.293 121.083 352.647 125.688 356.084 128.833 L 386.355 113.125 L 388.272 111.688 L 386.834 113.646 L 371.168 143.917 C 374.563 147.562 379.459 153.458 382.209 157.042 L 432.834 124.875 C 429.73 120.854 426.543 116.917 423.251 113.042 L 391.188 134.167 L 389.001 136.083 L 390.626 133.688 L 404.793 105.438 L 394.793 95.438 L 366.543 109.604 L 364.147 111.229 L 366.043 109.021 L 387.251 76.958 C 383.501 73.792 379.938 70.896 375.376 67.375 Z M 114.585 78.854 C 107.085 79.625 101.293 84.75 85.564 102.292 C 80.106 108.479 74.856 114.833 69.793 121.333 L 113.001 162.312 C 127.314 146.479 133.126 140.604 144.418 128.708 C 152.397 120.271 156.918 110.583 148.918 101.271 C 144.585 96.229 137.293 95.125 131.21 97.625 L 130.626 97.833 L 130.835 97.292 C 132.376 91.646 130.376 85.625 125.772 82 C 122.606 79.5 118.585 78.375 114.585 78.875 L 114.585 78.854 Z M 114.71 91.667 C 117.543 90.896 120.481 92.917 121.126 95.833 C 121.793 98.75 119.96 101.5 117.918 103.792 C 113.335 109 96.439 126.667 96.439 126.667 L 88.064 118.688 C 96.751 108.063 106.001 98.396 110.189 94.563 C 111.439 93.25 113.001 92.25 114.71 91.667 Z M 250.001 101.729 C 173.98 101.688 110.251 159.187 102.501 234.812 L 102.501 234.854 C 92.376 334.479 181.814 415.312 279.918 395.208 C 348.834 381.041 398.293 320.354 398.251 250 C 398.168 168.167 331.834 101.833 250.001 101.771 L 250.001 101.729 Z M 134.647 106.771 C 135.626 106.771 136.647 107.042 137.564 107.667 C 139.397 108.896 140.23 111 139.772 113.083 C 139.23 115.563 137.168 117.896 135.501 119.708 L 113.731 143.042 L 104.981 134.708 C 104.981 134.708 121.376 117.375 126.751 111.813 C 128.876 109.604 130.251 108.271 131.71 107.542 C 132.605 107.063 133.605 106.813 134.626 106.771 L 134.647 106.771 Z M 250.001 121.208 C 321.168 121.125 378.876 178.833 378.793 250 L 250.001 250 L 250.001 378.791 C 178.835 378.875 121.126 321.166 121.21 250 L 250.001 250 L 250.001 121.208 Z" style="fill: url(&quot;#pattern-0-0&quot;);" id="object-0" transform="matrix(1, 0, 0, 1, 0, -7.105427357601002e-15)"/></svg>