<?xml version="1.0" encoding="utf-8"?>
<svg xmlns="http://www.w3.org/2000/svg" viewBox="0 0 500 500" xmlns:bx="https://boxy-svg.com" width="500px" height="500px"><defs><bx:export><bx:file format="svg" path="apple.svg"/><bx:file format="svg" path="Apple.svg" excluded="true"/></bx:export><pattern x="0" y="0" width="25" height="25" patternUnits="userSpaceOnUse" viewBox="0 0 100 100" id="pattern-0" patternTransform="matrix(20.000001, 0, 0, 20.000001, 0, 0)"><rect width="50" height="100" style="fill: black; transform-origin: 25px 50px 0px;" transform="matrix(0, 1, -1, 0, 25, -25)"/></pattern></defs><title>Apple</title><title>BMW</title><path d="M 250 0 C 111.94 0 0 111.94 0 250 C 0 388.06 111.94 500 250 500 C 388.06 500 500 388.06 500 250 C 500 111.94 388.06 0 250 0 Z M 250 16.26 C 379.08 16.26 483.72 120.9 483.72 250 C 483.72 379.08 379.1 483.72 250 483.72 C 120.9 483.72 16.28 379.08 16.28 250 C 16.28 120.92 120.92 16.26 250 16.26 Z M 235.88 29.38 C 229 29.66 222.12 30.26 215.2 31 L 212.98 92.34 C 217.88 91.5 222.82 90.86 227.78 90.38 L 229.22 48.96 L 228.96 46.1 L 229.86 48.82 L 243.68 79.84 L 256.32 79.84 L 270.14 48.84 L 270.98 46.1 L 270.78 48.96 L 272.22 90.38 C 277.06 90.84 282.08 91.5 287.02 92.34 L 284.76 31 C 277.88 30.24 270.98 29.68 264.08 29.38 L 250.48 63.24 L 250 65.74 L 249.52 63.24 L 235.88 29.38 Z M 375.38 67.38 L 343.22 117.96 C 347.3 121.08 352.64 125.68 356.08 128.84 L 386.361 113.12 L 388.28 111.68 L 386.84 113.64 L 371.16 143.92 C 374.56 147.56 379.46 153.46 382.2 157.04 L 432.84 124.88 C 429.72 120.86 426.54 116.92 423.26 113.04 L 391.18 134.16 L 389 136.08 L 390.62 133.68 L 404.8 105.44 L 394.8 95.44 L 366.54 109.6 L 364.14 111.22 L 366.04 109.02 L 387.26 76.96 C 383.5 73.8 379.94 70.9 375.38 67.38 Z M 114.58 78.86 C 107.08 79.62 101.3 84.76 85.56 102.3 C 80.1 108.48 74.86 114.84 69.8 121.34 L 113 162.32 C 127.32 146.48 133.12 140.6 144.42 128.7 C 152.4 120.28 156.92 110.58 148.92 101.28 C 144.58 96.22 137.3 95.12 131.2 97.62 L 130.62 97.84 L 130.84 97.3 C 132.38 91.64 130.38 85.62 125.78 82 C 122.6 79.5 118.58 78.38 114.58 78.88 L 114.58 78.86 Z M 114.7 91.66 C 117.54 90.9 120.48 92.92 121.12 95.84 C 121.8 98.76 119.96 101.5 117.92 103.8 C 113.34 109 96.44 126.66 96.44 126.66 L 88.06 118.68 C 96.76 108.06 106 98.4 110.18 94.56 C 111.44 93.26 113 92.26 114.7 91.66 Z M 250 101.72 C 173.98 101.68 110.26 159.18 102.5 234.82 L 102.5 234.86 C 92.38 334.48 181.82 415.32 279.92 395.2 C 348.84 381.04 398.3 320.361 398.26 250 C 398.16 168.16 331.84 101.84 250 101.78 L 250 101.72 Z M 134.64 106.78 C 135.62 106.78 136.64 107.04 137.56 107.66 C 139.4 108.9 140.22 111 139.78 113.08 C 139.22 115.56 137.16 117.9 135.5 119.7 L 113.72 143.04 L 104.98 134.7 C 104.98 134.7 121.38 117.38 126.76 111.82 C 128.88 109.6 130.26 108.28 131.7 107.54 C 132.6 107.06 133.6 106.82 134.62 106.78 L 134.64 106.78 Z M 250 121.2 C 321.16 121.12 378.88 178.84 378.8 250 L 250 250 L 250 378.8 C 178.84 378.88 121.12 321.16 121.2 250 L 250 250 L 250 121.2 Z" style="fill: url(&quot;#pattern-0&quot;); paint-order: stroke;"/></svg>