<?xml version="1.0" encoding="utf-8"?>
<svg xmlns="http://www.w3.org/2000/svg" viewBox="-0.0001 171.579 500.0011 156.842" width="500.0011px" height="156.842px"><defs><pattern id="pattern-0-0" href="#pattern-0" patternTransform="matrix(20.8337, 0, 0, 20.8337, -10.470969, -10.4144)"/><pattern x="0" y="0" width="25" height="25" patternUnits="userSpaceOnUse" viewBox="0 0 100 100" id="pattern-0"><rect width="50" height="100" style="fill: black; transform-origin: 50px 50px 0px;" x="25" transform="matrix(0, 1, -1, 0, 0, -25)"/><rect width="50" height="100" style="fill: rgb(255, 255, 255); transform-origin: 50px 50.002px 0px;" x="25" transform="matrix(0, 1, -1, 0, -0.002, 24.998)"/></pattern></defs><path d="M 350.269 183.627 C 350.269 183.627 340.894 187.377 329.998 199.377 C 319.081 211.398 312.748 224.898 317.435 228.482 C 319.248 229.857 323.414 230.128 330.977 223.273 C 337.935 217.232 343.394 209.648 346.936 201.127 C 351.811 189.252 350.269 183.773 350.269 183.627 M 409.916 205.252 C 397.812 199.023 388.957 191.419 379.749 186.71 C 370.957 182.21 365.269 180.314 358.165 181.273 C 357.186 181.439 356.207 181.689 355.248 182.002 C 355.248 182.002 358.915 194.502 344.352 215.482 C 329.602 236.774 316.227 236.628 312.414 230.774 C 308.435 224.607 313.581 212.023 322.164 200.835 C 331.165 189.127 346.956 179.418 346.956 179.418 C 346.956 179.418 341.936 176.335 329.56 183.377 C 317.477 190.169 296.706 206.44 277.434 233.857 C 258.142 261.274 254.309 276.358 251.559 288.233 C 248.809 300.108 251.309 312.817 264.476 312.817 C 277.643 312.817 292.976 292.733 297.31 285.754 C 305.352 272.753 310.581 252.816 299.643 255.545 C 294.247 256.899 289.893 262.857 287.143 268.608 C 285.414 272.295 284.08 276.17 283.185 280.149 C 279.351 281.733 275.768 283.816 272.497 286.358 C 268.872 289.045 265.476 292.045 262.372 295.316 C 262.372 295.316 262.413 285.816 269.976 270.441 C 277.559 255.086 291.435 248.065 299.31 247.399 C 306.393 246.836 315.623 252.857 307.81 275.045 C 299.997 297.233 276.914 324.213 252.684 324.546 C 230.329 324.859 215.683 296.316 246.809 246.524 C 281.268 191.46 321.685 174.585 334.79 172.71 C 347.915 170.835 352.186 176.606 352.186 176.606 C 360.082 173.377 368.603 171.96 377.124 172.502 C 393.166 173.585 405.541 184.919 421.916 192.898 C 417.645 196.96 413.583 201.231 409.937 205.231 M 481.901 186.689 C 470.792 193.815 455.438 200.273 440.666 198.898 C 436.937 202.752 432.937 207.231 428.937 212.107 C 454.521 217.169 476.961 201.294 488.871 187.794 C 493.231 182.939 496.961 177.585 500.001 171.835 C 494.561 177.481 488.501 182.481 481.901 186.71 M 447.812 258.837 C 448 258.503 448.167 258.149 448.292 257.774 C 448.146 256.566 447.146 255.628 445.937 255.524 C 443.5 255.42 440.166 255.878 431.458 265.524 C 424.229 273.503 417.999 282.337 412.916 291.837 C 407.916 300.962 405.895 307.754 408.749 309.504 C 409.687 309.983 410.77 310.108 411.791 309.817 C 413.729 309.358 415.937 307.525 419.291 303.671 C 420.854 301.837 422.583 299.254 424.666 296.4 C 430.437 288.566 444.937 263.837 447.812 258.837 M 357.207 269.337 C 358.665 265.545 360.519 258.066 356.665 255.128 C 352.519 252.003 341.977 259.316 341.915 266.816 C 341.852 274.503 349.352 277.962 351.144 278.462 C 352.186 278.733 352.519 278.67 353.019 277.858 C 354.602 275.108 356.019 272.274 357.207 269.337 M 349.227 283.295 C 346.623 282.087 344.165 280.524 341.977 278.67 C 339.769 276.816 337.935 274.587 336.56 272.066 C 336.394 271.816 336.248 272.003 336.081 272.233 C 335.935 272.441 335.269 273.045 329.644 281.274 C 324.019 289.525 315.393 306.608 323.185 309.504 C 328.206 311.379 336.54 302.608 341.102 296.796 C 344.186 292.733 346.998 288.462 349.477 284.004 C 349.727 283.524 349.477 283.399 349.227 283.295 M 437.937 303.025 C 435.812 306.421 433.396 312.942 440.375 308.879 C 448.917 303.962 461.084 285.483 461.084 285.483 L 466.604 285.483 C 461.584 293.212 456 300.546 449.875 307.442 C 441.229 317.025 430.666 325.754 423.208 324.879 C 414.541 323.879 417.249 312.462 417.249 312.462 C 417.249 312.462 404.833 325.692 396.207 324.754 C 384.603 323.463 388.145 309.108 388.145 309.108 C 388.145 309.108 375.019 325.234 366.061 324.734 C 352.04 323.9 355.561 306.837 359.478 294.816 C 361.561 288.4 363.498 283.358 363.498 283.358 C 363.498 283.358 362.103 283.712 359.123 284.149 C 357.54 284.379 354.707 284.545 354.707 284.545 C 354.707 284.545 348.873 294.858 344.186 301.046 C 339.519 307.233 319.644 328.588 307.935 324.317 C 297.143 320.358 300.727 303.816 307.018 290.67 C 316.185 271.503 342.019 243.94 356.936 247.586 C 372.374 251.336 357.29 279.504 357.29 279.504 C 357.29 279.504 357.29 279.608 357.436 279.691 C 357.748 279.795 358.561 279.899 360.415 279.524 C 362.353 279.129 364.228 278.587 366.061 277.858 C 366.061 277.858 381.603 245.336 398.749 224.044 C 415.895 202.794 450.104 166.127 463.542 175.002 C 466.792 177.189 465.334 184.689 460.917 193.794 C 458.917 194.44 456.896 194.981 454.854 195.419 C 457.813 190.044 459.771 185.523 460.354 182.356 C 462.375 171.356 436.708 194.544 418.374 219.44 C 407.333 234.461 397.499 250.336 389.02 266.941 C 392.332 264.92 395.499 262.67 398.478 260.191 C 406.666 253.42 414.437 246.149 421.77 238.461 C 428.833 231.232 435.437 223.607 441.583 215.586 C 443.542 215.482 445.479 215.294 447.417 214.982 C 440.708 224.065 433.396 232.711 425.541 240.815 C 418.249 248.211 410.333 256.17 403.437 261.962 C 397.291 267.17 390.811 271.983 384.04 276.358 C 384.04 276.358 367.999 308.712 376.728 310.775 C 381.853 312.025 391.978 296.4 391.978 296.4 C 391.978 296.4 405.208 276.253 413.166 267.149 C 424.041 254.795 433.375 247.649 442.75 247.524 C 448.187 247.42 451.396 253.211 451.396 253.211 L 453.958 249.253 L 469.729 249.253 C 469.729 249.253 440.271 299.212 437.916 302.983 M 481.901 186.731 C 470.792 193.835 455.438 200.294 440.666 198.919 C 436.916 202.773 432.937 207.252 428.916 212.127 C 454.521 217.19 476.941 201.336 488.871 187.814 C 493.231 182.96 496.961 177.606 500.001 171.835 C 494.561 177.481 488.501 182.481 481.901 186.71 M 260.434 211.232 L 245.434 211.232 L 236.955 224.94 L 251.955 224.94 L 260.434 211.232 Z M 189.391 258.67 C 195.787 249.92 213.392 219.273 213.392 219.273 C 213.246 218.065 212.267 217.127 211.058 217.023 C 208.621 216.898 204.558 217.732 196.475 227.836 C 188.412 237.94 182.141 245.961 177.579 254.336 C 172.578 263.462 170.37 269.899 173.266 271.649 C 174.203 272.108 175.266 272.233 176.266 271.962 C 178.141 271.503 180.599 269.608 183.954 265.753 C 185.87 263.462 187.683 261.107 189.412 258.67 M 108.931 217.211 C 104.786 214.086 94.244 221.398 94.181 228.878 C 94.119 236.565 103.681 238.919 104.911 238.961 C 105.265 239.003 105.64 238.919 105.952 238.753 C 106.181 238.628 106.348 238.419 106.452 238.19 C 107.577 235.982 108.598 233.732 109.494 231.419 C 110.952 227.607 112.786 220.148 108.931 217.211 M 102.681 243.67 C 99.827 242.774 97.098 241.503 94.556 239.92 C 92.098 238.315 90.098 236.086 88.744 233.482 C 88.598 233.232 88.431 233.419 88.285 233.649 C 88.139 233.857 87.306 234.919 81.66 243.19 C 76.035 251.482 67.66 268.399 75.493 271.316 C 80.493 273.191 88.91 264.357 93.494 258.566 C 96.91 254.024 100.077 249.274 102.973 244.378 C 103.161 243.878 102.973 243.753 102.681 243.67 M 225.184 248.753 L 230.663 248.753 C 230.663 248.753 203.141 288.587 187.579 286.733 C 178.912 285.712 181.474 275.003 181.474 275.003 C 181.474 275.003 169.287 289.275 158.078 286.379 C 147.932 283.774 154.495 266.878 154.495 266.878 C 153.328 267.337 131.349 292.108 115.89 286.17 C 99.723 279.92 108.119 259.17 111.202 252.941 C 113.807 247.67 116.682 242.545 116.682 242.545 C 116.682 242.545 114.202 243.253 112.619 243.607 L 108.744 244.44 C 108.744 244.44 101.098 256.857 96.431 263.066 C 91.744 269.253 71.889 290.566 60.181 286.337 C 48.472 282.087 51.368 265.712 57.951 252.691 C 68.618 231.607 93.91 205.69 109.161 209.606 C 124.557 213.544 111.807 238.524 111.807 238.524 C 111.807 238.524 114.869 238.919 122.223 233.899 C 132.786 226.69 146.724 207.294 161.828 209.586 C 168.953 210.648 175.578 217.919 166.516 231.753 C 163.62 236.19 158.766 240.149 155.057 236.232 C 152.745 233.774 154.766 229.357 157.203 226.294 C 159.12 223.773 162.162 222.378 165.328 222.565 C 165.328 222.565 167.828 216.877 161.474 216.961 C 156.328 217.065 143.328 229.044 135.994 241.128 C 129.265 252.232 119.057 271.149 129.286 275.274 C 138.682 279.066 156.557 257.857 164.828 246.732 C 173.099 235.628 191.954 210.44 207.787 209.44 C 213.225 209.086 216.475 214.044 216.475 214.044 L 218.308 211.148 L 234.121 211.148 C 234.121 211.148 204.329 260.878 201.996 264.628 C 200.162 267.566 197.746 274.212 204.433 270.483 C 211.142 266.774 225.184 248.753 225.184 248.753 M 216.558 328.421 C 204.912 320.358 190.954 316.275 176.808 316.817 C 169.037 317.025 161.849 320.921 157.432 327.317 C 151.391 316.796 139.474 310.337 121.036 310.483 C 91.244 310.817 61.681 324.567 38.284 324.546 C 15.846 324.546 -0.529 310.442 0.013 285.379 C 0.992 241.44 38.139 201.856 65.847 184.044 C 81.827 173.835 95.202 170.772 103.931 171.752 C 110.306 172.46 117.973 179.835 113.14 190.689 C 106.036 206.544 96.223 205.252 96.577 197.669 C 96.785 192.731 100.077 189.627 102.536 187.898 C 104.327 186.96 106.306 186.46 108.327 186.481 C 109.744 185.294 110.765 176.606 99.39 179.46 C 88.014 182.314 74.181 193.544 61.056 208.023 C 47.93 222.523 27.513 249.92 22.472 278.691 C 20.117 292.025 21.659 316.358 53.305 316.088 C 80.118 315.879 119.661 298.191 155.995 298.566 C 168.641 298.525 181.079 301.921 191.933 308.4 C 201.329 314.192 212.6 322.65 216.6 328.421" style="fill: url(&quot;#pattern-0-0&quot;);" id="object-0"/></svg>