<?xml version="1.0" encoding="utf-8"?>
<svg xmlns="http://www.w3.org/2000/svg" viewBox="0 0 500 500" xmlns:bx="https://boxy-svg.com" width="500px" height="500px"><defs><bx:export><bx:file format="svg" path="Bez nazwy.svg"/><bx:file format="svg" path="Bez nazwy 2.svg" excluded="true"/><bx:file format="svg" path="Bez nazwy 3.svg" excluded="true"/></bx:export><pattern x="0" y="0" width="25" height="25" patternUnits="userSpaceOnUse" viewBox="0 0 100 100" id="pattern-0"><rect width="50" height="100" style="fill: black; transform-origin: 50px 50px 0px;" x="25" transform="matrix(0, 1, -1, 0, 0, -25)"/><rect width="50" height="100" style="fill: rgb(255, 255, 255); transform-origin: 50px 50.002px 0px;" x="25" transform="matrix(0, 1, -1, 0, -0.002, 24.998)"/></pattern><pattern id="pattern-0-1" href="#pattern-0" patternTransform="matrix(20.8333, 0, 0, 20.8333, -10.441057, -10.418096)"/></defs><title>Coca-Cola</title><title>Coca-Cola</title><title>BMW</title><title>Intel</title><path d="M 425.416 153.01 L 425.416 344.26 L 459.812 344.26 L 459.812 153.01 L 425.416 153.01 Z M 0 155.718 L 0 191.906 L 36.188 191.906 L 36.188 155.697 L 0 155.718 Z M 203.75 163.051 L 203.75 289.155 C 203.75 299.843 204.667 308.843 206.458 316.072 C 208.271 323.155 211.354 328.947 215.625 333.322 C 219.854 337.697 225.521 340.801 232.354 342.718 C 239.312 344.655 248.062 345.551 258.5 345.551 L 263 345.551 L 263 313.614 C 258 313.614 253.729 313.364 250.646 312.843 C 247.625 312.551 244.771 311.28 242.521 309.239 C 240.542 307.051 239.292 304.301 238.917 301.385 C 238.333 297.197 238.083 292.989 238.146 288.76 L 238.146 243.301 L 263 243.301 L 263 213.801 L 238.146 213.801 L 238.146 163.051 L 203.75 163.051 Z M 130.729 211.218 C 122.479 211.218 114.896 212.885 108.188 216.239 C 101.375 219.593 95.688 224.239 91.063 230.156 L 89.25 232.593 L 89.25 213.801 L 55.375 213.801 L 55.375 344.135 L 89.521 344.135 L 89.521 277.176 C 89.896 264.926 92.854 255.926 98.542 250.114 C 104.583 243.926 111.917 240.843 120.292 240.843 C 130.208 240.843 137.813 243.947 142.833 249.864 C 147.729 255.78 150.313 264.155 150.313 274.864 L 150.313 344.114 L 184.958 344.114 L 184.958 270.197 C 185.083 251.656 180.187 236.968 170.667 226.656 C 161.125 216.343 147.75 211.197 130.729 211.197 L 130.729 211.218 Z M 340.416 211.343 C 322.416 211.281 305.146 218.364 292.375 231.051 C 286.333 237.093 281.437 244.322 277.958 252.572 C 274.375 260.947 272.562 269.989 272.667 279.093 C 272.667 288.51 274.333 297.385 277.687 305.635 C 281.041 313.864 285.812 321.093 291.729 327.135 C 297.646 333.176 305 338.093 313.5 341.572 C 322 345.176 331.416 346.989 341.458 346.989 C 370.562 346.989 388.583 333.718 399.416 321.364 L 374.687 302.53 C 369.521 308.718 357.166 317.093 341.708 317.093 C 332.041 317.093 324.062 314.905 318 310.405 C 311.937 305.926 307.583 299.53 305.646 292.239 L 305.25 291.072 L 407.645 291.072 L 407.645 278.843 C 407.645 269.447 405.979 260.676 402.75 252.447 C 399.5 244.489 394.833 237.197 388.979 230.926 C 382.958 224.718 375.729 219.801 367.729 216.51 C 359.062 212.968 349.771 211.218 340.416 211.343 Z M 0.896 213.801 L 0.896 344.135 L 35.292 344.135 L 35.292 213.801 L 0.896 213.801 Z M 340.021 240.593 C 363.604 240.593 374.687 257.197 374.687 266.739 L 305.521 266.864 C 305.521 257.322 316.458 240.718 340.021 240.593 Z M 487.37 320.051 C 480.39 320.051 474.75 325.697 474.75 332.676 C 474.75 339.655 480.39 345.301 487.37 345.301 C 494.35 345.301 500 339.655 500 332.676 C 500 325.697 494.35 320.051 487.37 320.051 Z M 487.21 322.239 C 487.23 322.239 487.23 322.239 487.25 322.239 C 493.02 322.239 497.69 326.905 497.67 332.676 C 497.67 338.426 493 343.093 487.25 343.093 C 481.5 343.093 476.83 338.426 476.83 332.676 C 476.83 326.947 481.48 322.28 487.21 322.26 L 487.21 322.239 Z M 482.35 325.468 L 482.35 340.03 L 485.06 340.03 L 485.06 334.093 L 487 334.093 L 490.6 340.03 L 493.44 340.03 L 489.69 333.843 C 490.62 333.76 491.48 333.343 492.14 332.676 C 492.77 332.051 493.19 331.135 493.19 329.843 C 493.19 328.426 492.77 327.405 491.87 326.635 C 491.1 325.843 489.69 325.468 488.02 325.468 L 482.35 325.468 Z M 485.06 327.53 L 488.27 327.53 C 488.67 327.53 489.04 327.655 489.44 327.78 C 489.77 327.885 490.04 328.114 490.21 328.426 C 490.48 328.697 490.46 329.072 490.46 329.593 C 490.46 329.989 490.37 330.385 490.21 330.739 C 489.98 330.989 489.73 331.218 489.44 331.385 C 489.04 331.51 488.67 331.655 488.27 331.655 L 485.06 331.655 L 485.06 327.53 Z" style="fill: url(&quot;#pattern-0-1&quot;);"/></svg>