<?xml version="1.0" encoding="utf-8"?>
<svg xmlns="http://www.w3.org/2000/svg" viewBox="-0.0025 162.489 500.0055 175.022" width="500.0055px" height="175.022px"><defs><pattern id="pattern-0-0" href="#pattern-0" patternTransform="matrix(20.8335, 0, 0, 20.8335, -10.3994, -10.432994)"/><pattern x="0" y="0" width="25" height="25" patternUnits="userSpaceOnUse" viewBox="0 0 100 100" id="pattern-0"><rect width="50" height="100" style="fill: black; transform-origin: 50px 50px 0px;" x="25" transform="matrix(0, 1, -1, 0, 0, -25)"/><rect width="50" height="100" style="fill: rgb(255, 255, 255); transform-origin: 50px 50.002px 0px;" x="25" transform="matrix(0, 1, -1, 0, -0.002, 24.998)"/></pattern></defs><path d="M 500.003 162.489 L 134.203 318.24 C 103.869 331.073 78.39 337.511 57.786 337.511 C 34.452 337.511 17.515 329.344 7.014 312.99 C 0.41 302.49 -1.527 289.177 1.181 273.031 C 3.889 256.885 11.098 239.698 22.765 221.406 C 32.494 206.614 48.431 187.176 70.619 163.072 C 63.098 174.926 57.577 187.926 54.286 201.572 C 48.452 226.468 53.702 244.739 70.036 256.406 C 77.807 261.844 88.494 264.573 102.119 264.573 C 112.994 264.573 125.245 262.823 138.87 259.323 L 500.003 162.489 Z" style="fill: url(&quot;#pattern-0-0&quot;);" id="object-0"/></svg>