<?xml version="1.0" encoding="utf-8"?>
<svg xmlns="http://www.w3.org/2000/svg" viewBox="-0.0009 108.3094 500.0014 283.3806" width="500.0014px" height="283.3806px"><defs><pattern id="pattern-0-1" href="#pattern-0" patternTransform="matrix(20.8337, 0, 0, 20.8337, -10.428771, -10.423743)"/><pattern x="0" y="0" width="25" height="25" patternUnits="userSpaceOnUse" viewBox="0 0 100 100" id="pattern-0"><rect width="50" height="100" style="fill: black; transform-origin: 50px 50px 0px;" x="25" transform="matrix(0, 1, -1, 0, 0, -25)"/><rect width="50" height="100" style="fill: rgb(255, 255, 255); transform-origin: 50px 50.002px 0px;" x="25" transform="matrix(0, 1, -1, 0, -0.002, 24.998)"/></pattern></defs><path d="M 466.276 236.958 C 458.166 262.876 445.046 285.501 421.646 301.168 L 414.776 306.397 L 409.276 311.314 L 407.376 313.543 L 406.856 314.397 L 406.626 314.981 L 406.546 315.314 L 406.546 315.585 L 406.566 315.772 L 406.606 315.918 L 406.646 316.043 L 406.756 316.189 L 406.796 316.231 L 407.006 316.397 L 407.256 316.543 L 407.486 316.627 C 407.796 316.71 408.106 316.752 408.436 316.752 L 408.936 316.752 C 412.646 316.606 419.606 313.814 422.046 311.647 L 419.146 314.501 L 415.736 317.606 L 412.126 320.647 L 408.376 323.585 L 404.526 326.418 L 400.416 329.21 L 396.166 331.918 L 391.876 334.481 L 387.436 336.939 L 382.796 339.335 L 378.086 341.585 L 373.396 343.669 L 368.476 345.69 L 367.546 346.065 C 326.5 361.961 277.395 363.857 244.332 336.898 C 251.686 344.065 260.728 352.065 269.312 357.315 C 264.082 356.419 260.374 352.377 255.436 350.835 C 255.52 351.002 267.416 366.482 302.979 370.544 L 309.562 371.211 L 319.563 371.857 L 329.229 372.148 L 338.563 371.961 L 347.73 371.148 L 357.397 369.398 L 365.756 367.169 L 378.226 363.398 L 384.356 361.711 L 387.026 361.023 C 389.186 360.481 391.476 359.94 393.956 359.419 L 394.816 359.231 C 396.336 359.877 383.896 366.294 366.816 371.107 C 359.296 373.857 351.417 375.273 343.5 375.836 L 337.896 376.086 L 333.396 376.107 L 328.854 376.003 L 323.354 375.69 L 316.792 375.128 L 310.333 374.419 L 309.167 374.273 C 300.812 373.253 292.895 372.044 285.791 371.294 L 285.666 371.294 L 285.791 371.294 C 286.416 371.607 290.145 373.294 308.021 379.669 C 306.75 380.128 300.812 380.94 276.02 370.336 C 326.375 399.336 379.936 386.149 427.396 358.148 L 434.736 353.669 L 435.836 352.96 L 441.966 348.981 L 445.106 346.835 C 448.816 344.315 452.466 341.71 456.066 339.044 C 456.066 339.231 455.986 339.481 455.986 339.689 C 456.506 339.773 457.026 339.856 457.546 339.898 C 457.256 340.752 457.256 340.752 453.086 345.71 C 462.146 338.398 466.816 327.043 476.416 320.189 C 471.506 330.043 465.216 337.127 453.506 348.544 C 454.186 348.044 454.836 347.481 455.486 346.919 L 456.066 346.377 L 455.486 346.919 C 434.066 367.211 407.566 381.357 378.776 387.857 C 381.396 387.565 384.006 387.044 386.546 386.336 C 381.956 387.607 381.816 387.753 379.876 388.399 C 381.086 388.253 381.086 388.253 387.336 386.982 C 383.686 388.774 379.476 389.628 369.316 391.69 C 427.776 382.44 488.506 338.127 493.396 278.168 C 491.666 278.293 490.216 276.917 490.236 275.188 C 490.416 263.48 487.166 254.73 481.486 248.063 C 478.086 260.146 472.876 271.73 460.086 291.23 C 454.666 299.418 445.086 299.772 439.146 307.293 L 438.706 307.022 L 438.046 306.439 L 437.936 306.376 L 437.856 306.335 L 437.836 306.314 L 437.776 306.314 L 437.626 306.335 L 437.566 306.335 L 437.546 306.356 C 437.066 306.626 436.666 306.981 436.336 307.418 L 437.626 305.96 L 439.026 304.043 L 439.356 303.397 L 439.456 303.105 L 439.506 302.897 L 439.506 302.689 L 439.486 302.501 L 439.456 302.439 L 439.416 302.355 L 439.396 302.293 L 439.336 302.23 C 439.316 302.189 439.276 302.147 439.236 302.105 L 439.046 301.98 L 438.206 301.585 L 438.086 301.501 L 438.006 301.418 L 437.956 301.355 L 437.916 301.314 L 437.876 301.189 L 437.876 301.064 L 437.896 300.918 L 437.986 300.689 L 438.456 299.98 L 438.756 299.647 C 451.716 285.334 463.586 272.438 468.716 253.23 L 468.836 252.792 L 468.276 253.459 C 466.466 255.605 465.216 256.521 463.276 258.98 L 465.566 250.855 L 466.296 248.209 L 467.646 242.792 L 468.736 238.104 C 467.936 237.667 467.126 237.271 466.276 236.958 Z M 419.256 366.107 C 411.856 370.419 404.146 374.232 396.236 377.503 C 388.316 380.732 380.226 383.315 372.226 384.878 C 388.606 380.544 404.396 374.253 419.256 366.107 Z M 283.729 370.336 L 284.791 370.752 L 284.77 370.502 L 283.729 370.336 Z M 359.646 311.856 C 351.896 307.668 348.917 298.73 344.146 292.168 C 331.646 279.251 329.542 257.146 326.271 239.063 C 322.979 221.5 307.979 208.5 297.562 194.916 C 288.333 187.395 264.249 164.561 252.874 160.915 C 237.874 154.686 224.79 166.478 212.311 172.249 C 202.165 176.437 191.435 177.624 182.477 185.374 C 168.435 203.395 159.997 188.978 143.705 203.25 C 119.434 228.667 110.246 206.291 76.892 236.063 C 67.954 241.417 59.579 246.792 48.808 246.209 C 31.662 245.396 25.828 222.354 39.245 212.187 C 48.599 201.729 71.579 190.958 60.162 174.041 C 48.287 163.457 34.328 167.957 20.203 156.165 C 13.682 166.374 22.016 180.228 32.724 183.624 C 37.12 186.353 47.329 181.999 49.433 188.353 C 44.912 197.395 32.557 202.291 26.766 211.041 C 12.328 227.708 26.578 255.042 47.037 256.313 C 54.6 258.751 64.225 252.584 69.121 255.125 C 69.704 261.084 69.121 266.459 70.308 271.834 C 70.871 277.709 77.558 284.001 73.892 289.709 C 67.954 294.814 60.266 297.418 52.433 296.939 C 48.37 301.626 47.683 306.939 45.266 312.439 C 42.308 317.814 36.349 320.189 32.162 322.585 C 29.391 326.773 26.641 331.418 20.807 332.127 C 17.245 336.314 16.641 341.669 15.453 347.044 C 30.37 351.002 33.578 349.002 41.703 336.314 C 44.683 333.335 48.87 335.71 51.829 336.314 C 60.308 335.294 66.641 329.627 72.725 324.377 C 94.434 318.71 94.225 332.918 119.247 316.627 C 123.434 314.835 125.226 310.064 127.017 306.481 C 129.101 302.48 134.893 294.772 127.601 292.772 C 108.871 330.668 76.267 299.814 51.245 328.502 C 47.412 329.564 50.391 323.606 51.245 322.522 C 69.204 296.355 110.059 319.397 124.017 285.522 C 126.455 280.313 125.08 259.542 131.163 259.855 C 131.768 259.855 133.559 260.459 133.559 261.646 C 127.768 286.939 131.601 294.793 158.601 290.355 C 167.852 287.689 194.352 297.126 193.81 284.397 C 193.81 282.022 191.414 280.834 193.81 279.043 C 194.394 278.438 196.185 279.043 196.79 279.626 C 198.477 289.834 207.436 297.335 215.936 301.71 C 233.082 313.376 226.144 328.606 206.373 327.96 C 199.81 324.377 198.04 317.814 193.248 312.439 C 187.685 307.564 180.06 309.897 173.581 311.251 C 170.352 316.106 177.998 321.897 179.539 326.773 C 182.518 328.564 186.706 325.564 189.081 329.148 C 191.477 332.71 192.664 336.314 196.248 338.689 C 206.581 348.606 228.165 331.189 239.186 330.335 C 248.832 331.398 253.228 322.606 256.499 315.418 C 261.937 305.48 247.457 295.668 246.353 286.793 C 243.061 285.876 238.686 283.313 236.207 286.793 C 238.04 291.23 248.27 307.481 247.54 312.439 C 246.207 316.043 243.165 324.356 238.603 323.772 C 239.811 319.606 241.603 314.856 241.603 310.064 C 239.415 304.96 229.832 290.209 229.061 285.001 C 230.978 279.959 240.769 282.876 244.561 277.834 C 248.749 271.272 249.936 264.73 251.145 256.375 C 251.395 255.5 252.061 254.813 252.936 254.563 C 258.749 258.313 252.832 276.272 249.353 280.23 C 249.02 286.418 261.187 282.272 263.666 280.23 C 268.27 281.188 277.624 276.584 279.77 279.626 C 276.978 283.147 274.937 287.209 273.812 291.564 C 270.228 295.73 264.27 298.73 264.27 304.689 C 264.916 308.439 269.958 302.397 270.228 307.064 C 265.041 313.668 265.687 315.272 267.249 322.585 C 272.687 330.252 283.104 323.939 289.916 322.002 C 301.416 317.481 314.333 324.627 323.333 312.439 C 325.75 312.647 327.959 313.981 329.292 316.022 C 335.938 323.002 345.313 326.71 354.938 326.168 C 358.856 323.46 350.313 321.314 348.98 320.189 C 344.792 317.814 339.417 314.231 338.23 309.46 C 336.667 302.793 331.854 296.689 328.688 290.376 C 342.625 290.584 344.084 319.668 364.436 315.439 C 365.436 314.751 365.336 314.001 365.046 313.043 L 359.646 311.856 Z M 8.265 326.168 C 1.203 329.064 4.953 337.794 0.536 342.273 C 0.536 342.856 -0.672 344.065 0.536 344.669 C 3.494 345.252 5.89 346.46 9.474 347.044 C 11.057 341.71 12.599 335.773 13.64 330.939 C 12.432 329.148 10.661 326.773 8.265 326.168 Z M 369.046 318.043 C 367.276 320.314 363.336 320.439 361.626 322.002 C 361.256 322.481 361.086 323.106 361.146 323.71 C 361.646 325.543 361.046 327.502 359.626 328.752 C 357.813 330.71 354.417 331.585 351.355 331.377 C 336.063 331.543 328.604 324.064 322.354 320.481 C 313.812 326.002 308.5 328.189 297.333 326.46 C 290.77 325.939 284.916 329.252 278.541 330.877 C 287.583 338.627 324.229 348.46 310.729 341.794 C 288.395 329.148 304.583 337.564 324.167 342.189 C 335.25 344.919 346.605 346.315 358.022 346.356 C 376.276 340.439 393.376 331.418 408.586 319.71 C 407.756 319.71 406.916 319.564 406.126 319.272 C 405.296 318.939 404.606 318.356 404.146 317.585 C 403.506 316.502 403.146 314.751 404.626 312.356 C 406.166 309.876 410.586 305.543 419.916 298.793 C 419.936 298.772 419.956 298.751 420.006 298.73 C 442.856 283.397 455.626 261.23 463.506 235.917 C 458.106 233.979 452.546 232.583 446.876 231.75 C 438.436 252.709 436.396 267.501 416.506 279.355 C 393.416 294.459 407.876 290.584 408.106 290.48 C 409.896 289.751 411.606 288.834 413.206 287.73 C 404.276 302.085 388.756 311.251 370.226 315.377 C 370.166 316.377 369.726 317.314 369.046 318.043 Z M 21.391 326.168 C 25.557 323.772 27.953 319.606 29.745 316.022 C 28.453 314.022 26.912 311.376 23.787 312.439 C 20.932 314.647 17.953 316.627 14.849 318.418 C 13.349 322.46 17.078 327.564 21.411 326.168 L 21.391 326.168 Z M 201.56 313.043 C 203.936 316.022 203.936 320.189 206.936 322.585 C 210.581 323.085 214.269 322.002 217.061 319.606 C 218.852 318.418 216.477 316.627 215.873 314.835 C 214.082 312.439 215.29 307.668 211.102 307.668 C 206.581 308.731 201.623 307.418 197.373 308.856 C 197.373 310.668 200.956 310.668 201.56 313.043 Z M 308.333 305.876 C 305.604 306.606 302.812 307.001 300 307.064 L 299.396 307.064 C 295.875 303.814 303.229 297.314 307.146 297.522 L 308.937 297.522 C 311.125 298.439 310.562 304.189 308.333 305.876 Z M 471.416 239.646 C 470.626 243.167 469.796 246.479 468.916 249.834 C 470.816 249.896 472.146 251.688 471.686 253.521 C 466.626 273.022 454.876 286.251 441.836 300.647 L 441.896 300.751 C 443.986 299.293 446.216 298.105 448.416 296.918 C 451.816 295.084 455.216 293.251 457.626 289.605 C 470.796 269.563 475.796 258.042 479.126 245.542 C 476.836 243.334 474.276 241.375 471.416 239.646 Z M 451.666 187.228 L 454.106 188.749 C 490.046 212 505.296 255.355 492.296 290.939 L 492.416 290.834 C 498.466 273.459 500.916 255.042 499.696 236.688 C 493.316 189.166 477.046 147.457 419.066 132.123 C 454.916 140.79 457.606 145.269 462.296 148.353 C 434.436 122.623 389.586 113.685 344.23 121.373 C 370.336 112.956 413.046 113.852 440.276 130.061 L 440.916 130.457 C 376.166 90.748 298.437 108.06 250.624 153.665 C 259.561 155.395 267.416 161.29 274.728 166.936 L 276.999 165.707 L 279.645 164.374 L 282.374 163.082 L 287.999 160.603 L 293.854 158.311 L 300 156.124 L 306.375 154.124 L 312.312 152.478 L 319.042 150.832 L 325.271 149.499 L 330.959 148.457 L 334.5 147.894 L 338.042 147.374 L 340.917 146.999 L 344.5 146.603 C 380.026 142.811 418.236 147.54 446.736 166.311 L 447.006 166.478 C 460.396 175.249 471.296 187.353 478.626 201.583 C 477.936 202.02 477.276 201.916 476.666 201.562 L 475.876 200.958 L 473.626 198.562 L 473.216 198.249 C 472.916 198.145 472.256 197.499 471.936 197.354 L 467.586 193.416 L 462.416 189.541 L 456.876 186.166 L 455.966 185.666 C 439.856 176.957 420.256 173.103 402.836 169.436 L 401.776 169.228 L 410.416 172.27 L 419.986 175.082 L 430.276 178.062 L 436.506 180.124 L 441.546 182.082 L 444.876 183.562 L 447.856 185.062 L 449.626 186.02 L 451.666 187.228 Z M 428.506 279.647 C 432.376 271.126 441.416 266.542 444.376 256.25 C 443.936 257.771 447.166 258.396 448.436 258.396 C 453.546 257.521 453.666 250.5 455.316 249.042 C 454.046 265.001 443.276 278.063 431.486 288.876 C 429.936 287.939 428.026 287.855 426.396 288.647 C 425.896 285.647 432.356 281.48 428.506 279.647 Z M 323.854 271.272 C 323.188 272.438 322.167 275.48 320.875 275.459 C 319.583 275.438 319.021 275.647 319.083 274.272 C 318.979 270.251 318.333 265.334 314.896 262.938 C 307.104 250.813 305.146 266.001 302.375 264.126 C 300.708 260.751 303.333 256.938 304.771 253.98 C 305.437 253.188 305.687 252.25 306.562 251.605 C 307.833 244.25 314.542 248.438 316.104 252.792 C 320.208 257.896 325.042 263.646 324.458 269.501 C 323.854 268.897 323.854 270.084 323.854 271.272 Z M 312.417 202.979 C 307.896 197.145 303.208 190.853 298.187 186.249 C 323.333 177.27 363.956 174.999 384.046 174.228 C 388.796 174.082 391.376 173.77 392.436 173.457 C 393.126 173.27 393.776 172.895 394.256 172.374 C 394.856 171.728 395.126 170.853 395.026 169.978 C 394.936 169.041 394.416 168.207 393.646 167.686 C 392.476 167.061 391.206 166.666 389.896 166.457 C 382.626 165.249 375.276 164.499 367.896 164.249 L 367.856 164.249 C 354.167 164.249 338.5 165.645 323.604 168.249 C 328.917 166.457 334.334 164.999 339.834 163.895 C 341.271 163.603 342.271 162.311 342.209 160.853 C 342.125 159.395 341 158.207 339.542 158.061 C 337 157.79 320.896 159.624 306.104 163.082 C 296 165.436 286.562 168.624 282.166 172.207 C 282.062 172.291 281.979 172.374 281.895 172.478 C 280.416 171.228 278.916 169.999 277.458 168.811 C 309.667 151.811 361.456 142.373 405.736 152.519 C 430.276 158.124 452.526 169.811 467.666 189.708 C 449.586 175.853 424.186 170.936 402.376 166.332 C 400.126 165.916 398.296 168.082 399.066 170.228 C 399.336 170.999 399.916 171.624 400.666 171.957 C 416.546 178.27 433.296 180.145 448.166 188.583 C 480.916 207.375 497.776 242.813 493.196 275.23 C 493.526 254.521 483.836 242.459 468.936 234.854 C 423.296 215.687 380.126 241.292 343.938 246.479 L 343.938 246.188 L 343.875 246.084 C 341.792 241.604 363.396 237.021 366.276 235.292 C 367.976 233.521 370.896 234.125 372.836 232.542 C 374.756 230.646 377.626 230.229 380.186 229.729 C 386.916 226.292 394.336 225.167 401.836 225.021 C 404.486 225.417 406.936 223.937 409.586 224.125 C 410.816 223.562 412.166 223.333 413.506 223.5 C 421.526 222.896 429.736 222.146 436.646 217.271 C 437.376 216.833 439.836 215.479 437.756 215.208 C 424.646 211.666 418.336 220.625 406.376 209.875 C 406.566 209.416 402.606 207.729 402.046 207.729 C 395.706 209 389.776 211.833 383.186 211.937 C 380.186 212.604 379.006 211.104 376.006 211.104 C 371.976 212.041 366.416 214.625 362.316 214.937 C 360.396 214.583 351.021 219.479 350.834 216.104 C 350.771 216.125 350.688 216.125 350.626 216.104 C 349.626 212.312 409.416 189.978 384.816 205.02 C 386.166 206.187 394.126 202.833 401.626 202.27 C 410.046 200.479 421.236 206.666 424.916 198.416 C 424.776 197.062 421.546 197.458 420.756 198.02 C 419.146 198.895 417.416 198.312 415.736 198.687 C 412.916 199.02 401.986 197.041 399.506 197.208 C 397.526 195.52 410.506 195.874 411.646 195.687 C 415.916 195.041 421.066 194.083 425.336 193.291 C 427.236 193.062 429.146 193.02 431.046 193.166 C 434.916 194.083 445.296 192.666 434.236 189.978 C 431.316 189.416 422.126 189.124 420.646 189.583 C 418.396 189.874 408.646 192.77 403.456 191.562 C 398.776 190.145 418.046 189.353 415.756 188.062 C 391.836 185.041 364.566 185.791 317.333 208.895 C 315.833 207.041 314.208 205.083 312.417 202.979 Z M 259.436 221.771 C 258.832 222.375 258.228 222.375 257.041 222.375 C 255.436 216.333 254.874 210.041 251.666 205.062 C 249.999 203.416 247.832 201.291 249.27 198.499 C 250.165 197.458 251.686 197.208 252.874 197.895 C 258.332 201.979 259.249 207.666 259.436 214.604 C 260.624 215.791 260.02 219.375 259.436 221.771 Z M 451.666 187.228 Z M 295.479 184.103 L 299.916 182.541 L 305.166 180.957 L 310.708 179.541 L 317.229 178.124 L 324.729 176.728 L 331.25 175.707 L 338.959 174.687 L 348.167 173.645 L 357.897 172.77 L 368.936 172.02 L 377.566 171.541 L 386.856 171.166 L 390.896 170.791 L 391.626 170.624 L 391.896 170.52 L 392.006 170.457 L 392.006 170.436 L 392.066 170.395 L 392.066 170.374 L 392.086 170.291 C 392.086 170.249 392.066 170.207 392.006 170.145 L 391.916 170.082 L 391.796 170.02 C 389.436 168.811 373.476 167.249 367.856 167.186 C 343.063 167.186 311.667 171.853 290.52 179.916 L 295.479 184.103 Z M 338.688 160.978 L 339.25 160.999 C 333.125 162.228 327.084 163.895 321.188 165.957 L 310.854 169.478 L 301.437 172.936 L 294.333 175.687 L 288.395 178.124 L 284.041 174.499 C 293.083 167.103 325.042 162.04 335.938 161.124 L 338.688 160.978 Z M 412.566 164.895 C 414.236 166.124 420.126 169.686 429.486 169.728 C 430.666 169.728 431.736 169.02 432.206 167.936 C 432.666 166.853 432.436 165.582 431.626 164.728 C 429.756 162.79 426.436 161.124 422.586 159.832 C 417.486 158.124 411.396 156.936 407.296 155.999 C 406.566 155.832 405.816 155.957 405.166 156.332 C 404.486 156.707 403.986 157.332 403.756 158.061 C 403.486 158.832 403.546 159.665 403.916 160.374 C 404.126 160.811 404.736 161.603 405.876 162.249 C 407.436 163.103 410.756 164.311 412.566 164.895 Z M 406.586 159.103 C 406.526 159.02 406.546 158.936 406.646 158.874 C 412.936 160.311 424.026 162.311 428.666 166.041 L 429.506 166.77 C 426.396 166.77 423.336 166.311 420.376 165.395 L 418.316 164.666 L 416.396 163.79 L 415.046 163.02 C 414.666 162.811 414.316 162.561 414.006 162.27 L 414.026 162.27 L 408.256 160.124 L 407.356 159.686 C 407.066 159.561 406.796 159.353 406.586 159.103 Z M 412.936 165.02 L 412.986 165.041 C 412.956 165.041 412.956 165.02 412.936 165.02 Z" style="fill: url(&quot;#pattern-0-1&quot;);" id="object-0"/></svg>